<mxfile host="app.diagrams.net" modified="2023-10-16T15:31:23.185Z" agent="Mozilla/5.0 (Macintosh; Intel Mac OS X 10_15_7) AppleWebKit/537.36 (KHTML, like Gecko) Chrome/118.0.0.0 Safari/537.36" etag="piudqm4L_ur_zWl_aEwF" version="22.0.4" type="github">
  <diagram name="Page-1" id="huNla84vrK5DsACiSgXn">
    <mxGraphModel dx="796" dy="509" grid="1" gridSize="10" guides="1" tooltips="1" connect="1" arrows="1" fold="1" page="1" pageScale="1" pageWidth="850" pageHeight="1100" math="0" shadow="0">
      <root>
        <mxCell id="0" />
        <mxCell id="1" parent="0" />
        <mxCell id="SxDReXSQGKXNQfkKHReB-3" style="edgeStyle=orthogonalEdgeStyle;rounded=0;orthogonalLoop=1;jettySize=auto;html=1;entryX=0;entryY=0.5;entryDx=0;entryDy=0;" edge="1" parent="1" source="SxDReXSQGKXNQfkKHReB-1" target="SxDReXSQGKXNQfkKHReB-2">
          <mxGeometry relative="1" as="geometry" />
        </mxCell>
        <mxCell id="SxDReXSQGKXNQfkKHReB-1" value="" style="whiteSpace=wrap;html=1;aspect=fixed;" vertex="1" parent="1">
          <mxGeometry x="220" y="140" width="80" height="80" as="geometry" />
        </mxCell>
        <mxCell id="SxDReXSQGKXNQfkKHReB-2" value="" style="whiteSpace=wrap;html=1;aspect=fixed;" vertex="1" parent="1">
          <mxGeometry x="460" y="140" width="80" height="80" as="geometry" />
        </mxCell>
      </root>
    </mxGraphModel>
  </diagram>
</mxfile>
